<svg xmlns="http://www.w3.org/2000/svg" width="149.53" height="67.184" viewBox="0 0 149.53 67.184">
  <path id="Path_330" data-name="Path 330" d="M137.294-126.876a34.249,34.249,0,0,0,6.622-20.443c0-19.1-14.588-33.592-33.975-33.592s-34.168,14.588-34.168,33.592c0,19.1,14.78,33.592,33.88,33.592a36.286,36.286,0,0,0,13.629-2.591l-9.021-9.022a15.156,15.156,0,0,1-4.415.48c-12.285,0-21.787-9.5-21.787-22.458,0-12.861,9.5-22.458,21.787-22.458s21.786,9.5,21.786,22.458a22.656,22.656,0,0,1-3.359,12.285h-14.3l21.307,21.307h15.164ZM69.056-147.319c0-19.1-14.588-33.592-33.976-33.592S.912-166.323.912-147.319c0,19.2,14.78,33.592,34.168,33.592s33.976-14.493,33.976-33.592Zm-12.285,0c0,12.957-9.5,22.458-21.786,22.458S13.2-134.363,13.2-147.319s9.5-22.458,21.787-22.458,21.786,9.5,21.786,22.458Z" transform="translate(-0.912 180.911)" fill="#fd8123"/>
</svg>
